# xmcd CD database file
#
# Track frame offsets:
#	150
#	19205
#	40632
#	64007
#	86085
#	101292
#	127485
#	147382
#	171477
#	185830
#	210667
#	241297
#
# Disc length: 3573 seconds
#
# Revision: 1
# Processed by: cddbd v1.5.1PL2 Copyright (c) Steve Scherf et al.
# Submitted via: CDex 1.51
#
DISCID=b20df30c
DTITLE=The Robert Cray Band - Take Your Shoes Off
DYEAR=1999
DGENRE=Blues
TTITLE0=Love Gone To Waste
TTITLE1=That Wasn't Me
TTITLE2=All The Way
TTITLE3=There's Nothing Wrong
TTITLE4=24-7 Man
TTITLE5=Pardon
TTITLE6=Let Me Know
TTITLE7=It's All Gone
TTITLE8=Won't Yoy Give Him (One More Chance)
TTITLE9=Living Proof
TTITLE10=What About Me
TTITLE11=Tollin' Bells
EXTD=YEAR: 1999
EXTT0=
EXTT1=
EXTT2=
EXTT3=
EXTT4=
EXTT5=
EXTT6=
EXTT7=
EXTT8=
EXTT9=
EXTT10=
EXTT11=
PLAYORDER=
